<svg width="200" height="200" viewBox="0 0 200 200" fill="none" xmlns="http://www.w3.org/2000/svg">
<rect width="200" height="200" fill="black"/>
<path d="M57.5454 146C56.5288 146 56.0204 145.492 56.0204 144.475V119.587L41.3804 105.008C41.0958 104.683 40.9128 104.398 40.8314 104.154C40.7908 103.869 40.7704 103.544 40.7704 103.178V66.212C40.7704 65.1953 41.2788 64.687 42.2954 64.687H64.6824C65.6991 64.687 66.2074 65.1953 66.2074 66.212V95.98H71.2704V66.212C71.2704 65.1953 71.7788 64.687 72.7954 64.687H95.1824C96.1991 64.687 96.7074 65.1953 96.7074 66.212V103.178C96.7074 103.544 96.6871 103.869 96.6464 104.154C96.6058 104.398 96.4228 104.683 96.0974 105.008L81.5184 119.587V144.475C81.5184 145.492 81.0101 146 79.9934 146H57.5454ZM102.598 146C101.581 146 101.073 145.492 101.073 144.475V66.212C101.073 65.1953 101.581 64.687 102.598 64.687H139.869C140.926 64.687 141.739 64.9513 142.309 65.48L156.339 79.388C156.786 79.7947 157.071 80.1403 157.193 80.425C157.315 80.7097 157.376 81.1773 157.376 81.828V98.542C157.376 99.0707 157.03 99.6807 156.339 100.372L147.921 108.79L146.579 110.01L150.361 115.683L157.986 130.323C158.189 130.689 158.311 131.055 158.352 131.421C158.433 131.746 158.474 132.173 158.474 132.702V144.475C158.474 145.492 157.965 146 156.949 146H137.673C136.778 146 136.168 145.593 135.843 144.78L127.486 123.308H126.449V144.475C126.449 145.492 125.94 146 124.924 146H102.598ZM129.194 97.81C130.861 97.81 132.203 97.2813 133.22 96.224C134.277 95.1667 134.806 93.8247 134.806 92.198C134.806 90.5713 134.277 89.2497 133.22 88.233C132.203 87.1757 130.861 86.647 129.194 86.647C127.567 86.647 126.225 87.1757 125.168 88.233C124.151 89.2497 123.643 90.5713 123.643 92.198C123.643 93.8247 124.151 95.1667 125.168 96.224C126.225 97.2813 127.567 97.81 129.194 97.81Z" fill="white"/>
</svg>
